<svg width="497" height="428" viewBox="0 0 497 428" fill="none" xmlns="http://www.w3.org/2000/svg">
<path d="M348.467 107.927L341.547 125.857L353.5 163.073M353.5 163.073L365.768 125.542L359.162 107.927M353.5 163.073L321.1 126.171M353.5 163.073L385.9 126.171M321.1 126.171L334.941 107.927H372.374L385.9 126.171M321.1 126.171H385.9" stroke="#94B2F5" stroke-width="3" stroke-linecap="round" stroke-linejoin="round"/>
<path d="M100.45 371.266L97.6301 378.571L102.5 393.734M102.5 393.734L107.498 378.443L104.807 371.266M102.5 393.734L89.3 378.699M102.5 393.734L115.7 378.699M89.3 378.699L94.9388 371.266H110.189L115.7 378.699M89.3 378.699H115.7" stroke="#94B2F5" stroke-width="2" stroke-linecap="round" stroke-linejoin="round"/>
<path d="M194.106 195.15L183.939 221.714L201.5 276.85M201.5 276.85L219.523 221.248L209.818 195.15M201.5 276.85L153.9 222.18M201.5 276.85L249.1 222.18M153.9 222.18L174.234 195.15H229.228L249.1 222.18M153.9 222.18H249.1" stroke="#E7C6FF" stroke-width="4" stroke-linecap="round" stroke-linejoin="round"/>
<path d="M379.946 264.96L363.371 307.904L392 397.04M392 397.04L421.383 307.15L405.561 264.96M392 397.04L314.4 308.657M392 397.04L469.6 308.657M314.4 308.657L347.55 264.96H437.204L469.6 308.657M314.4 308.657H469.6" stroke="url(#paint0_angular_21_223)" stroke-width="6" stroke-linecap="round" stroke-linejoin="round"/>
<path d="M158.639 16.0643L155.392 24.476L161 41.9357M161 41.9357L166.755 24.3284L163.656 16.0643M161 41.9357L145.8 24.6236M161 41.9357L176.2 24.6236M145.8 24.6236L152.293 16.0643H169.854L176.2 24.6236M145.8 24.6236H176.2" stroke="url(#paint1_angular_21_223)" stroke-width="2" stroke-linecap="round" stroke-linejoin="round"/>
<path d="M241.509 311.83L239.458 317.143L243 328.17M243 328.17L246.635 317.05L244.678 311.83M243 328.17L233.4 317.236M243 328.17L252.6 317.236M233.4 317.236L237.501 311.83H248.592L252.6 317.236M233.4 317.236H252.6" stroke="url(#paint2_angular_21_223)" stroke-width="2" stroke-linecap="round" stroke-linejoin="round"/>
<path d="M170.5 63L181.389 96.5127H216.626L188.119 117.225L199.008 150.737L170.5 130.025L141.992 150.737L152.881 117.225L124.374 96.5127H159.611L170.5 63Z" fill="#B8C0FF"/>
<path d="M416 10L419.817 21.7467L432.168 21.7467L422.176 29.0066L425.992 40.7533L416 33.4934L406.008 40.7533L409.824 29.0066L399.832 21.7467L412.183 21.7467L416 10Z" fill="#B8C0FF"/>
<path d="M19 4L22.8167 15.7467L35.168 15.7467L25.1756 23.0066L28.9923 34.7533L19 27.4934L9.00765 34.7533L12.8244 23.0066L2.83204 15.7467L15.1833 15.7467L19 4Z" fill="#B8C0FF"/>
<path d="M102.5 289L112.266 319.403H143.871L118.302 338.193L128.069 368.597L102.5 349.807L76.9313 368.597L86.6977 338.193L61.129 319.403H92.7336L102.5 289Z" fill="#E7C6FF"/>
<path d="M464.5 348L469.776 364.584H486.85L473.037 374.833L478.313 391.416L464.5 381.167L450.687 391.416L455.963 374.833L442.15 364.584H459.224L464.5 348Z" fill="#FFD6FF"/>
<path d="M82.5 11.0902L98.6448 60.7786L99.2061 62.5061H101.022H153.268L111 93.2153L109.531 94.2829L110.092 96.0104L126.237 145.699L83.9695 114.99L82.5 113.922L81.0305 114.99L38.763 145.699L54.9078 96.0104L55.469 94.2829L53.9996 93.2153L11.732 62.5061H63.9776H65.7939L66.3552 60.7786L82.5 11.0902Z" stroke="#E7C6FF" stroke-width="5"/>
<path d="M146.5 248.914L153.266 270.024L153.6 271.066H154.695H176.647L158.87 284.159L158.002 284.799L158.331 285.825L165.111 306.976L147.39 293.925L146.5 293.27L145.61 293.925L127.889 306.976L134.669 285.825L134.998 284.799L134.13 284.159L116.353 271.066H138.305H139.4L139.734 270.024L146.5 248.914Z" stroke="#FFD6FF" stroke-width="3"/>
<path d="M228 108.236L231.09 117.747L231.315 118.438H232.041H242.041L233.951 124.316L233.363 124.743L233.588 125.434L236.678 134.944L228.588 129.066L228 128.639L227.412 129.066L219.322 134.944L222.412 125.434L222.637 124.743L222.049 124.316L213.959 118.438H223.959H224.685L224.91 117.747L228 108.236Z" stroke="#FFD6FF" stroke-width="2"/>
<path d="M82.5 43.8541L91.5133 71.5942L91.8501 72.6307H92.9399H122.108L98.5104 89.7751L97.6288 90.4156L97.9655 91.4521L106.979 119.192L83.3817 102.048L82.5 101.407L81.6183 102.048L58.0212 119.192L67.0345 91.4521L67.3712 90.4156L66.4896 89.7751L42.8924 72.6307H72.0601H73.1499L73.4867 71.5942L82.5 43.8541Z" stroke="#FFD6FF" stroke-width="3"/>
<path d="M463 121.854L468.982 140.266L469.319 141.302H470.409H489.768L474.106 152.682L473.225 153.322L473.561 154.359L479.544 172.771L463.882 161.391L463 160.751L462.118 161.391L446.456 172.771L452.439 154.359L452.775 153.322L451.894 152.682L436.232 141.302H455.591H456.681L457.018 140.266L463 121.854Z" stroke="#E7C6FF" stroke-width="3"/>
<path d="M409.5 132L431 163.5H388L409.5 132Z" fill="#C8B6FF"/>
<path d="M409.5 195L431 163.5H388L409.5 195Z" fill="#C8B6FF"/>
<path d="M274.5 244L296 275.5H253L274.5 244Z" fill="#B8C0FF"/>
<path d="M274.5 307L296 275.5H253L274.5 307Z" fill="#B8C0FF"/>
<path d="M170 148L182 165.5H158L170 148Z" fill="#FFD6FF"/>
<path d="M170 183L182 165.5H158L170 183Z" fill="#FFD6FF"/>
<g clip-path="url(#clip0_21_223)">
<path fill-rule="evenodd" clip-rule="evenodd" d="M293.478 171.836C301.392 172.415 309.639 176.307 317.533 184.184C325.425 176.309 333.665 172.424 341.571 171.858C350.495 171.22 358.384 174.859 364.092 180.599C375.314 191.887 378.838 212.311 364.913 226.359C364.866 226.406 364.818 226.453 364.769 226.498L320.242 267.187C318.705 268.592 316.361 268.592 314.824 267.187L270.297 226.498C270.248 226.453 270.2 226.406 270.153 226.359C256.155 212.237 259.66 191.811 270.919 180.533C276.641 174.801 284.546 171.183 293.478 171.836Z" fill="#FFD6FF"/>
</g>
<g clip-path="url(#clip1_21_223)">
<path fill-rule="evenodd" clip-rule="evenodd" d="M208.107 32.883C212.52 33.2028 217.117 35.3537 221.518 39.7068C225.918 35.3549 230.512 33.2081 234.92 32.8955C239.896 32.5426 244.294 34.5534 247.476 37.726C253.733 43.9636 255.697 55.2506 247.934 63.0142C247.908 63.0404 247.881 63.0659 247.853 63.0908L223.029 85.5771C222.172 86.3533 220.865 86.3533 220.008 85.5771L195.183 63.0908C195.156 63.0659 195.129 63.0404 195.103 63.0142C187.299 55.2102 189.253 43.9219 195.53 37.6891C198.72 34.5215 203.127 32.5222 208.107 32.883Z" fill="#FFD6FF"/>
</g>
<g clip-path="url(#clip2_21_223)">
<path fill-rule="evenodd" clip-rule="evenodd" d="M67.3945 229.038C71.8769 229.368 76.5476 231.587 81.0186 236.078C85.4885 231.588 90.1551 229.373 94.6334 229.051C99.6875 228.687 104.156 230.761 107.389 234.035C113.744 240.47 115.74 252.116 107.853 260.126C107.827 260.153 107.8 260.179 107.772 260.205L82.5531 283.405C81.6822 284.206 80.3551 284.206 79.4841 283.405L54.2655 260.205C54.2376 260.179 54.2104 260.153 54.1838 260.126C46.2559 252.074 48.2411 240.427 54.6178 233.997C57.8584 230.729 62.3356 228.666 67.3945 229.038Z" fill="#94B2F5"/>
</g>
<g clip-path="url(#clip3_21_223)">
<path fill-rule="evenodd" clip-rule="evenodd" d="M458.557 211.21C461.442 211.819 464.285 213.655 466.799 216.928C470.098 214.451 473.327 213.447 476.267 213.639C479.585 213.855 482.308 215.58 484.124 217.963C487.693 222.648 487.972 230.281 482.143 234.708C482.123 234.723 482.103 234.737 482.083 234.751L463.655 247.363C463.019 247.798 462.156 247.68 461.66 247.09L447.293 229.996C447.277 229.977 447.262 229.958 447.247 229.938C442.797 224.079 445.107 216.799 449.815 213.249C452.209 211.444 455.3 210.522 458.557 211.21Z" fill="#94B2F5"/>
</g>
<g clip-path="url(#clip4_21_223)">
<path fill-rule="evenodd" clip-rule="evenodd" d="M108.313 34.2249C109.741 33.7662 111.46 33.86 113.395 34.6712C114.228 32.745 115.4 31.4877 116.747 30.8307C118.267 30.0893 119.905 30.1642 121.308 30.7586C124.066 31.9273 126.114 35.2278 124.656 38.6532C124.651 38.6647 124.646 38.6762 124.641 38.6875L119.684 48.9049C119.512 49.2576 119.102 49.4232 118.734 49.2877L108.077 45.3624C108.065 45.358 108.054 45.3534 108.042 45.3485C104.599 43.8833 103.783 40.0857 104.967 37.3302C105.569 35.9298 106.701 34.7425 108.313 34.2249Z" fill="#C8B6FF"/>
</g>
<g clip-path="url(#clip5_21_223)">
<path fill-rule="evenodd" clip-rule="evenodd" d="M7.3131 139.225C8.74121 138.766 10.4597 138.86 12.3954 139.671C13.2276 137.745 14.4001 136.488 15.7468 135.831C17.2667 135.089 18.9047 135.164 20.3075 135.759C23.0655 136.927 25.1138 140.228 23.6562 143.653C23.6513 143.665 23.6461 143.676 23.6406 143.687L18.6836 153.905C18.5123 154.258 18.1015 154.423 17.7335 154.288L7.07708 150.362C7.0653 150.358 7.05363 150.353 7.04207 150.348C3.59888 148.883 2.78287 145.086 3.96697 142.33C4.56873 140.93 5.70134 139.743 7.3131 139.225Z" fill="#94B2F5"/>
</g>
<g clip-path="url(#clip6_21_223)">
<path fill-rule="evenodd" clip-rule="evenodd" d="M297.426 16.4108C298.9 16.6907 300.364 17.5945 301.677 19.2324C303.328 17.9384 304.959 17.3946 306.456 17.4614C308.146 17.5367 309.548 18.3856 310.496 19.5783C312.36 21.9232 312.581 25.8013 309.664 28.1131C309.654 28.1209 309.644 28.1285 309.634 28.1358L300.395 34.7404C300.076 34.9684 299.636 34.9174 299.378 34.6225L291.894 26.0804C291.886 26.071 291.878 26.0613 291.87 26.0515C289.546 23.1186 290.645 19.3929 293.002 17.5387C294.2 16.5964 295.763 16.095 297.426 16.4108Z" fill="#94B2F5"/>
</g>
<g clip-path="url(#clip7_21_223)">
<path fill-rule="evenodd" clip-rule="evenodd" d="M327.505 369.382C328.976 369.674 330.433 370.59 331.732 372.239C333.394 370.959 335.03 370.429 336.526 370.508C338.215 370.597 339.611 371.458 340.549 372.658C342.393 375.019 342.582 378.898 339.645 381.186C339.635 381.194 339.625 381.201 339.615 381.208L330.322 387.736C330.001 387.961 329.561 387.907 329.305 387.61L321.893 379.006C321.885 378.996 321.877 378.986 321.869 378.977C319.57 376.024 320.7 372.308 323.072 370.473C324.278 369.541 325.844 369.053 327.505 369.382Z" fill="#94B2F5"/>
</g>
<g clip-path="url(#clip8_21_223)">
<path fill-rule="evenodd" clip-rule="evenodd" d="M468.523 259.4C469.994 259.692 471.451 260.608 472.75 262.257C474.412 260.977 476.048 260.446 477.544 260.526C479.233 260.615 480.628 261.475 481.566 262.676C483.411 265.036 483.6 268.916 480.663 271.204C480.653 271.211 480.643 271.219 480.633 271.226L471.34 277.754C471.019 277.979 470.579 277.924 470.323 277.627L462.911 269.024C462.903 269.014 462.895 269.004 462.887 268.994C460.588 266.042 461.717 262.326 464.09 260.491C465.296 259.559 466.862 259.071 468.523 259.4Z" fill="#E7C6FF"/>
</g>
<g clip-path="url(#clip9_21_223)">
<path d="M153.381 352.72L154.577 353.598L155.468 352.412C157.027 350.336 158.704 349.288 160.285 348.939L159.962 347.474L160.285 348.939C162.066 348.545 163.786 349.027 165.163 350.047C167.944 352.105 169.212 356.239 166.783 359.52L157.176 371.203L144.603 362.795C141.304 360.337 141.326 356.013 143.398 353.245L143.398 353.245C144.424 351.873 145.935 350.918 147.758 350.782C149.376 350.662 151.287 351.183 153.381 352.72Z" fill="#C8B6FF" stroke="#C8B6FF" stroke-width="3"/>
</g>
<g clip-path="url(#clip10_21_223)">
<path fill-rule="evenodd" clip-rule="evenodd" d="M10.1235 104.813C12.174 104.33 14.5695 104.652 17.1894 106.004C18.5689 103.399 20.3505 101.77 22.3091 101C24.5195 100.131 26.8045 100.418 28.7024 101.406C32.4336 103.35 34.9338 108.199 32.5119 112.832C32.5038 112.848 32.4951 112.863 32.4862 112.878L24.4086 126.632C24.1296 127.106 23.536 127.292 23.0359 127.062L8.55325 120.38C8.53724 120.372 8.52141 120.365 8.50578 120.356C3.84822 117.922 3.1285 112.514 5.09307 108.788C6.09146 106.894 7.80934 105.358 10.1235 104.813Z" fill="#FFD6FF"/>
</g>
<g clip-path="url(#clip11_21_223)">
<path fill-rule="evenodd" clip-rule="evenodd" d="M471.907 8.49237C474.055 10.0986 475.699 12.7003 476.522 16.3619C480.192 15.5792 483.239 15.9855 485.592 17.2676C488.247 18.7145 489.835 21.1795 490.422 23.8398C491.576 29.0703 488.888 35.4749 482.385 36.8994C482.363 36.9042 482.341 36.9085 482.319 36.9122L462.292 40.2732C461.601 40.3891 460.934 39.9618 460.75 39.2852L455.43 19.6872C455.425 19.6655 455.419 19.6437 455.414 19.6218C453.983 13.0855 458.672 7.96183 463.915 6.83275C466.579 6.25893 469.483 6.67959 471.907 8.49237Z" fill="#C8B6FF"/>
</g>
<g clip-path="url(#clip12_21_223)">
<path fill-rule="evenodd" clip-rule="evenodd" d="M231.25 150.415C233.398 152.021 235.042 154.622 235.865 158.284C239.535 157.501 242.582 157.908 244.935 159.19C247.59 160.637 249.178 163.102 249.765 165.762C250.919 170.992 248.23 177.397 241.728 178.822C241.706 178.826 241.684 178.831 241.662 178.834L221.635 182.195C220.944 182.311 220.277 181.884 220.093 181.207L214.773 161.609C214.767 161.588 214.762 161.566 214.757 161.544C213.326 155.008 218.015 149.884 223.258 148.755C225.922 148.181 228.826 148.602 231.25 150.415Z" fill="#C8B6FF"/>
</g>
<g clip-path="url(#clip13_21_223)">
<path d="M47.287 43.3665L41.654 28.8816L54.1581 21.4534L59.7911 35.9383M47.287 43.3665C48.005 45.2126 47.0904 47.2911 45.2443 48.0091C43.3982 48.727 41.3196 47.8124 40.6017 45.9663C39.8838 44.1202 40.7983 42.0416 42.6444 41.3237C44.4905 40.6058 46.5691 41.5204 47.287 43.3665ZM59.7911 35.9383C60.509 37.7844 59.5945 39.863 57.7484 40.5809C55.9022 41.2988 53.8237 40.3843 53.1058 38.5382C52.3878 36.6921 53.3024 34.6135 55.1485 33.8956C56.9946 33.1776 59.0732 34.0922 59.7911 35.9383Z" stroke="#94B2F5" stroke-width="3" stroke-linecap="round" stroke-linejoin="round"/>
</g>
<g clip-path="url(#clip14_21_223)">
<path d="M138.039 201.335L132.939 188.237L145.176 181.151L150.276 194.25M138.039 201.335C138.689 203.005 137.759 204.926 135.961 205.626C134.163 206.326 132.178 205.54 131.528 203.871C130.878 202.201 131.809 200.28 133.607 199.58C135.405 198.88 137.389 199.666 138.039 201.335ZM150.276 194.25C150.926 195.919 149.996 197.84 148.198 198.54C146.4 199.24 144.415 198.454 143.765 196.785C143.115 195.116 144.046 193.195 145.844 192.495C147.642 191.794 149.626 192.58 150.276 194.25Z" stroke="#B8C0FF" stroke-width="3" stroke-linecap="round" stroke-linejoin="round"/>
</g>
<path d="M415.303 104.43L421.339 57.147L465.913 55.4445L459.877 102.727M415.303 104.43C414.533 110.456 409.024 114.718 402.998 113.948C396.972 113.179 392.71 107.67 393.48 101.644C394.249 95.6178 399.758 91.3563 405.784 92.1256C411.81 92.8949 416.072 98.4037 415.303 104.43ZM459.877 102.727C459.108 108.754 453.599 113.015 447.573 112.246C441.546 111.477 437.285 105.968 438.054 99.9416C438.823 93.9153 444.332 89.6538 450.359 90.4231C456.385 91.1924 460.646 96.7012 459.877 102.727Z" stroke="#FFD6FF" stroke-width="4" stroke-linecap="round" stroke-linejoin="round"/>
<path d="M24.125 312.25V288.958L45.625 285.375V308.667M24.125 312.25C24.125 315.219 21.7185 317.625 18.75 317.625C15.7815 317.625 13.375 315.219 13.375 312.25C13.375 309.281 15.7815 306.875 18.75 306.875C21.7185 306.875 24.125 309.281 24.125 312.25ZM45.625 308.667C45.625 311.635 43.2185 314.042 40.25 314.042C37.2815 314.042 34.875 311.635 34.875 308.667C34.875 305.698 37.2815 303.292 40.25 303.292C43.2185 303.292 45.625 305.698 45.625 308.667Z" stroke="#FFD6FF" stroke-width="3" stroke-linecap="round" stroke-linejoin="round"/>
<path d="M280 44.3L311.2 101.5L280 158.7L248.8 101.5L280 44.3Z" stroke="#C8B6FF" stroke-width="4" stroke-linejoin="round"/>
<path d="M280 58L304 102L280 146L256 102L280 58Z" stroke="#C8B6FF" stroke-width="3" stroke-linejoin="round"/>
<path d="M280 69.1L297.6 101.5L280 133.9L262.4 101.5L280 69.1Z" fill="#C8B6FF" stroke="#C8B6FF" stroke-width="3" stroke-linejoin="round"/>
<path d="M15 355.8L25.4 375L15 394.2L4.60001 375L15 355.8Z" stroke="#C8B6FF" stroke-width="3" stroke-linejoin="round"/>
<path d="M34.2363 177.058L44.0654 193.825H24.4073L34.2363 177.058Z" fill="#B8C0FF"/>
<path d="M34.2363 210.593L44.0654 193.825H24.4073L34.2363 210.593Z" fill="#B8C0FF"/>
<path d="M34.2363 164.569L50.4254 193.247L34.2363 221.925L18.0473 193.247L34.2363 164.569Z" stroke="#C8B6FF" stroke-width="4" stroke-linejoin="round"/>
<path d="M202.193 308.651L217.556 336.143H186.83L202.193 308.651Z" fill="#FFD6FF"/>
<path d="M202.193 363.635L217.556 336.143H186.83L202.193 363.635Z" fill="#FFD6FF"/>
<path d="M202.193 290.861L227.421 336.143L202.193 381.425L176.965 336.143L202.193 290.861Z" stroke="#94B2F5" stroke-width="4" stroke-linejoin="round"/>
<circle cx="94.6492" cy="187.361" r="24.258" fill="#FFD6FF"/>
<circle cx="94.6492" cy="187.361" r="16.172" fill="#B8C0FF"/>
<ellipse cx="279.01" cy="351.533" rx="25.8752" ry="26.7099" fill="#C8B6FF"/>
<ellipse cx="279.01" cy="351.532" rx="17.2501" ry="17.8066" fill="#FFD6FF"/>
<ellipse cx="254.375" cy="16.7421" rx="11.3752" ry="11.7421" fill="#C8B6FF"/>
<ellipse cx="254.375" cy="16.7421" rx="7.58346" ry="7.82809" fill="#FFD6FF"/>
<circle cx="403.534" cy="227.791" r="19.4064" fill="#FFD6FF"/>
<circle cx="403.534" cy="227.791" r="12.9376" fill="#B8C0FF"/>
<circle cx="359.061" cy="53.9418" r="33.1526" fill="#94B2F5"/>
<circle cx="359.061" cy="53.9418" r="22.1017" fill="#E7C6FF"/>
<circle cx="229" cy="281" r="11" fill="#94B2F5"/>
<circle cx="229" cy="281" r="7.33333" fill="#E7C6FF"/>
<circle cx="46.5" cy="346.5" r="16.5" fill="#94B2F5"/>
<path d="M57.5 346.5C57.5 352.575 52.5751 357.5 46.5 357.5C40.4249 357.5 35.5 352.575 35.5 346.5C35.5 340.425 40.4249 335.5 46.5 335.5C52.5751 335.5 57.5 340.425 57.5 346.5Z" fill="#FFD6FF"/>
<path d="M21.201 236.905L18.0398 245.095L23.5 262.095M23.5 262.095L29.1039 244.951L26.0864 236.905M23.5 262.095L8.70001 245.239M23.5 262.095L38.3 245.239M8.70001 245.239L15.0223 236.905H32.1214L38.3 245.239M8.70001 245.239H38.3" stroke="url(#paint3_angular_21_223)" stroke-width="2" stroke-linecap="round" stroke-linejoin="round"/>
<path d="M234 366.236L237.09 375.747L237.315 376.438H238.041H248.041L239.951 382.316L239.363 382.743L239.588 383.434L242.678 392.944L234.588 387.066L234 386.639L233.412 387.066L225.322 392.944L228.412 383.434L228.637 382.743L228.049 382.316L219.959 376.438H229.959H230.685L230.91 375.747L234 366.236Z" stroke="#FFD6FF" stroke-width="2"/>
<path d="M425.688 164.062C423.698 164.062 421.708 164.062 419.719 164.062C418.352 164.062 416.985 164.062 415.618 164.062C414.873 164.062 414.134 164 413.389 164C412.543 164 411.599 164.076 410.774 163.875C409.814 163.641 408.671 163.812 407.688 163.812C406.275 163.812 404.863 163.812 403.451 163.812C402.056 163.812 400.659 163.829 399.264 163.812C398.569 163.804 397.863 163.75 397.16 163.75C396.769 163.75 396.377 163.75 395.986 163.75C395.807 163.75 395.495 163.807 395.375 163.688" stroke="#C8B6FF" stroke-width="4" stroke-linecap="round"/>
<path d="M391.25 163.438H427.812" stroke="#C8B6FF" stroke-width="4" stroke-linecap="round"/>
<path d="M287.006 275.617C281.156 276.267 274.946 275.803 269.049 275.803C267.124 275.803 265.198 275.803 263.273 275.803C262.078 275.803 260.168 276.147 259.109 275.617" stroke="#B8C0FF" stroke-width="4" stroke-linecap="round"/>
<path d="M257.807 275.431C263.694 275.431 269.821 275.066 275.558 276.526C277.329 276.977 279.316 276.929 281.138 277.25C283.341 277.638 285.639 277.136 287.812 277.56C289.071 277.805 290.187 277.849 291.47 277.849" stroke="#B8C0FF" stroke-width="4" stroke-linecap="round"/>
<path d="M257.249 275.431H292.958" stroke="#B8C0FF" stroke-width="4" stroke-linecap="round"/>
<path d="M189.552 336.247H213.358" stroke="#FFD6FF" stroke-width="4" stroke-linecap="round"/>
<path d="M214.474 336.805C210.039 336.805 205.822 335.689 201.382 335.689C197.811 335.689 194.239 335.689 190.668 335.689" stroke="#FFD6FF" stroke-width="4" stroke-linecap="round"/>
<path d="M189.366 336.061H213.916" stroke="#FFD6FF" stroke-width="4" stroke-linecap="round"/>
<path d="M28.0376 194.55C29.9636 195.32 32.622 194.788 34.7189 194.788C35.9052 194.788 37.0916 194.788 38.2779 194.788" stroke="#B8C0FF" stroke-width="4" stroke-linecap="round"/>
<path d="M32.0861 194.788H40.1831" stroke="#B8C0FF" stroke-width="4" stroke-linecap="round"/>
<path d="M27.7994 193.597H40.4212" stroke="#B8C0FF" stroke-width="4" stroke-linecap="round"/>
<path d="M28.2757 194.312C31.4211 194.796 34.6188 195.502 37.8016 195.502" stroke="#B8C0FF" stroke-width="4" stroke-linecap="round"/>
<defs>
<radialGradient id="paint0_angular_21_223" cx="0" cy="0" r="1" gradientUnits="userSpaceOnUse" gradientTransform="translate(392 331) rotate(90) scale(66.0401 77.6)">
<stop stop-color="#FFD6FF"/>
<stop offset="0.35" stop-color="#E7C6FF"/>
<stop offset="0.62" stop-color="#C8B6FF"/>
<stop offset="0.82" stop-color="#B8C0FF"/>
<stop offset="1" stop-color="#94B2F5"/>
</radialGradient>
<radialGradient id="paint1_angular_21_223" cx="0" cy="0" r="1" gradientUnits="userSpaceOnUse" gradientTransform="translate(161 29) rotate(90) scale(12.9357 15.2)">
<stop stop-color="#FFD6FF"/>
<stop offset="0.35" stop-color="#E7C6FF"/>
<stop offset="0.62" stop-color="#C8B6FF"/>
<stop offset="0.82" stop-color="#B8C0FF"/>
<stop offset="1" stop-color="#94B2F5"/>
</radialGradient>
<radialGradient id="paint2_angular_21_223" cx="0" cy="0" r="1" gradientUnits="userSpaceOnUse" gradientTransform="translate(243 320) rotate(90) scale(8.1699 9.6)">
<stop stop-color="#FFD6FF"/>
<stop offset="0.35" stop-color="#E7C6FF"/>
<stop offset="0.62" stop-color="#C8B6FF"/>
<stop offset="0.82" stop-color="#B8C0FF"/>
<stop offset="1" stop-color="#94B2F5"/>
</radialGradient>
<radialGradient id="paint3_angular_21_223" cx="0" cy="0" r="1" gradientUnits="userSpaceOnUse" gradientTransform="translate(23.5 249.5) rotate(90) scale(12.5953 14.8)">
<stop stop-color="#FFD6FF"/>
<stop offset="0.35" stop-color="#E7C6FF"/>
<stop offset="0.62" stop-color="#C8B6FF"/>
<stop offset="0.82" stop-color="#B8C0FF"/>
<stop offset="1" stop-color="#94B2F5"/>
</radialGradient>
<clipPath id="clip0_21_223">
<rect width="113" height="114" fill="white" transform="translate(261 163)"/>
</clipPath>
<clipPath id="clip1_21_223">
<rect width="63" height="63" fill="white" transform="translate(190 28)"/>
</clipPath>
<clipPath id="clip2_21_223">
<rect width="64" height="65" fill="white" transform="translate(49 224)"/>
</clipPath>
<clipPath id="clip3_21_223">
<rect width="42" height="42" fill="white" transform="translate(447.038 206.349) rotate(7.78356)"/>
</clipPath>
<clipPath id="clip4_21_223">
<rect width="21.3603" height="21.3603" fill="white" transform="translate(102 34.984) rotate(-21.9488)"/>
</clipPath>
<clipPath id="clip5_21_223">
<rect width="21.3603" height="21.3603" fill="white" transform="translate(1 139.984) rotate(-21.9488)"/>
</clipPath>
<clipPath id="clip6_21_223">
<rect width="21.3603" height="21.3603" fill="white" transform="translate(291.518 14.0596) rotate(6.60914)"/>
</clipPath>
<clipPath id="clip7_21_223">
<rect width="21.3603" height="21.3603" fill="white" transform="translate(321.617 366.982) rotate(7.0848)"/>
</clipPath>
<clipPath id="clip8_21_223">
<rect width="21.3603" height="21.3603" fill="white" transform="translate(462.635 257) rotate(7.0848)"/>
</clipPath>
<clipPath id="clip9_21_223">
<rect width="29.2466" height="29.2466" fill="white" transform="translate(139 348.271) rotate(-8.3974)"/>
</clipPath>
<clipPath id="clip10_21_223">
<rect width="30" height="30" fill="white" transform="translate(1.20032 105.173) rotate(-17.4027)"/>
</clipPath>
<clipPath id="clip11_21_223">
<rect width="38.1955" height="38.1955" fill="white" transform="translate(464.26 0.0778503) rotate(32.6438)"/>
</clipPath>
<clipPath id="clip12_21_223">
<rect width="38.1955" height="38.1955" fill="white" transform="translate(223.603 142) rotate(32.6438)"/>
</clipPath>
<clipPath id="clip13_21_223">
<rect width="28.6923" height="28.6923" fill="white" transform="translate(29.4594 27.2102) rotate(-21.2505)"/>
</clipPath>
<clipPath id="clip14_21_223">
<rect width="27.9483" height="25.9507" fill="white" transform="translate(121.211 187.002) rotate(-21.2758)"/>
</clipPath>
</defs>
</svg>
